<svg xmlns="http://www.w3.org/2000/svg" width="18" height="18" viewBox="0 0 18 18">
  <g id="ico_ebook_18" transform="translate(-731 -612.033)">
    <rect id="사각형_98" data-name="사각형 98" width="18" height="18" transform="translate(731 612.033)" fill="none"/>
    <rect id="사각형_100" data-name="사각형 100" width="10" height="7" transform="translate(735 618.033)" fill="#fff"/>
    <path id="패스_56" data-name="패스 56" d="M-1534.436-4190.366h-1.224a.609.609,0,0,1-.567-.382.551.551,0,0,1-.1-.035,11.671,11.671,0,0,0-1.557-.592,15.368,15.368,0,0,0-1.556-.38c-.465-.088-.952-.161-1.447-.214-.4-.044-.812-.078-1.232-.1a1.023,1.023,0,0,1-.346-.079.936.936,0,0,1-.279-.184.839.839,0,0,1-.186-.26.768.768,0,0,1-.068-.315v-9.218a.758.758,0,0,1,.079-.339.838.838,0,0,1,.214-.272.952.952,0,0,1,.315-.177,1.022,1.022,0,0,1,.325-.052h.059c.458.024.916.063,1.361.114.546.063,1.077.149,1.577.253a13.584,13.584,0,0,1,1.645.448,9.658,9.658,0,0,1,1.341.575.608.608,0,0,1,.425-.172h1.224a.607.607,0,0,1,.426.173,9.666,9.666,0,0,1,1.337-.573,13.345,13.345,0,0,1,1.645-.451c.495-.1,1.026-.19,1.577-.255.448-.052.906-.091,1.363-.116h.052a1.069,1.069,0,0,1,.332.053.961.961,0,0,1,.315.176.844.844,0,0,1,.214.272.761.761,0,0,1,.079.339v9.226a.768.768,0,0,1-.068.315.837.837,0,0,1-.187.261.921.921,0,0,1-.28.183,1,1,0,0,1-.347.078c-.394.018-.808.05-1.232.1-.5.054-.987.126-1.447.214a15.039,15.039,0,0,0-1.556.378,11.61,11.61,0,0,0-1.556.59.556.556,0,0,1-.1.034A.609.609,0,0,1-1534.436-4190.366Zm-.652-7.34h.044c.1.606.175,1.022.261,1.436l.419,1.867h1.815l1.17-4.893h-1.44l-.428,2.192c-.058.291-.1.59-.135.879-.025.191-.052.389-.083.583h-.044c-.04-.189-.078-.38-.115-.564-.059-.294-.12-.6-.19-.9l-.532-2.192h-1.344l-.507,2.192c-.1.391-.173.805-.243,1.206l-.01.057c-.011.067-.023.134-.035.2h-.044c-.038-.239-.071-.481-.1-.715v-.009c-.033-.242-.066-.493-.106-.738l-.445-2.192h-1.536l1.221,4.893h1.772l.4-1.867c.086-.448.154-.881.235-1.435Z" transform="translate(2275 4818)" fill="#f57e25"/>
  </g>
</svg>
