<svg xmlns="http://www.w3.org/2000/svg" width="18" height="18" viewBox="0 0 18 18">
  <g id="ico_VOD_18" transform="translate(-2175 -5012)">
    <rect id="사각형_95" data-name="사각형 95" width="18" height="18" transform="translate(2175 5012)" fill="none"/>
    <rect id="사각형_101" data-name="사각형 101" width="10" height="7" transform="translate(2179 5017)" fill="#fff"/>
    <path id="패스_57" data-name="패스 57" d="M-172.111,208h-13.333a.556.556,0,0,1-.555-.555v-8.889a.556.556,0,0,1,.555-.555h13.333a.556.556,0,0,1,.556.555v8.889A.556.556,0,0,1-172.111,208Zm-7.554-7.526a.223.223,0,0,0-.223.222V205.3a.223.223,0,0,0,.223.222.219.219,0,0,0,.141-.052l2.764-2.3a.221.221,0,0,0,.08-.17.221.221,0,0,0-.08-.171l-2.764-2.3A.219.219,0,0,0-179.665,200.474Z" transform="translate(2363 4818)" fill="#f57e25"/>
  </g>
</svg>
