<svg width="24" height="24" viewBox="0 0 24 24" fill="none" xmlns="http://www.w3.org/2000/svg">
<path d="M9.34303 18.7814L7.41103 18.2634L8.19803 15.3244C7.02009 14.8897 5.92528 14.2565 4.96103 13.4524L2.80803 15.6064L1.39403 14.1924L3.54703 12.0384C2.33122 10.5821 1.51424 8.8351 1.17603 6.96837L3.14403 6.60938C3.52148 8.68318 4.6147 10.5588 6.23315 11.9092C7.85161 13.2597 9.89265 13.9994 12.0005 13.9994C14.1084 13.9994 16.1494 13.2597 17.7679 11.9092C19.3863 10.5588 20.4796 8.68318 20.857 6.60938L22.825 6.96737C22.4867 8.83455 21.6693 10.5819 20.453 12.0384L22.607 14.1924L21.193 15.6064L19.039 13.4524C18.0748 14.2565 16.98 14.8897 15.802 15.3244L16.59 18.2644L14.658 18.7814L13.87 15.8414C12.6325 16.0549 11.3676 16.0549 10.13 15.8414L9.34303 18.7814Z" fill="black"/>
</svg>
