<svg width="25" height="25" viewBox="0 0 25 25" fill="none" xmlns="http://www.w3.org/2000/svg">
<g id="ri:kakao-talk-fill">
<path id="Vector" d="M12.4999 3.125C18.5416 3.125 23.4385 6.94167 23.4385 11.651C23.4385 16.3594 18.5416 20.176 12.501 20.176C11.8995 20.175 11.2987 20.1367 10.702 20.0615L6.11035 23.0646C5.58848 23.3406 5.4041 23.3104 5.61868 22.6344L6.54785 18.8031C3.54785 17.2823 1.56348 14.6469 1.56348 11.651C1.56348 6.94271 6.45931 3.125 12.501 3.125M18.6551 11.5208L20.1864 10.0375C20.2747 9.94574 20.324 9.82326 20.3239 9.69588C20.3237 9.56849 20.2741 9.44614 20.1856 9.35459C20.097 9.26304 19.9763 9.20945 19.849 9.20509C19.7217 9.20074 19.5977 9.24597 19.5031 9.33125L17.4947 11.275V9.66875C17.4947 9.53835 17.4429 9.41329 17.3507 9.32109C17.2585 9.22888 17.1335 9.17708 17.0031 9.17708C16.8727 9.17708 16.7476 9.22888 16.6554 9.32109C16.5632 9.41329 16.5114 9.53835 16.5114 9.66875V12.3323C16.4941 12.4084 16.4941 12.4874 16.5114 12.5635V14.0625C16.5114 14.1929 16.5632 14.318 16.6554 14.4102C16.7476 14.5024 16.8727 14.5542 17.0031 14.5542C17.1335 14.5542 17.2585 14.5024 17.3507 14.4102C17.4429 14.318 17.4947 14.1929 17.4947 14.0625V12.6427L17.9395 12.2125L19.427 14.3302C19.4642 14.3831 19.5113 14.4281 19.5659 14.4627C19.6204 14.4974 19.6813 14.5209 19.7449 14.5321C19.8086 14.5432 19.8738 14.5417 19.9368 14.5276C19.9999 14.5135 20.0596 14.4871 20.1124 14.45C20.1653 14.4129 20.2103 14.3657 20.245 14.3111C20.2796 14.2566 20.3032 14.1957 20.3143 14.1321C20.3254 14.0685 20.3239 14.0032 20.3098 13.9402C20.2957 13.8771 20.2694 13.8175 20.2322 13.7646L18.6551 11.5208ZM15.5739 13.525H14.0531V9.68437C14.0472 9.55803 13.993 9.43878 13.9015 9.35143C13.81 9.26408 13.6884 9.21533 13.5619 9.21533C13.4354 9.21533 13.3138 9.26408 13.2223 9.35143C13.1309 9.43878 13.0766 9.55803 13.0708 9.68437V14.0167C13.0708 14.2875 13.2895 14.5083 13.5614 14.5083H15.5739C15.7043 14.5083 15.8293 14.4565 15.9216 14.3643C16.0138 14.2721 16.0656 14.1471 16.0656 14.0167C16.0656 13.8863 16.0138 13.7612 15.9216 13.669C15.8293 13.5768 15.7043 13.525 15.5739 13.525ZM9.47285 12.3885L10.1979 10.6094L10.8624 12.3875L9.47285 12.3885ZM12.101 12.8958L12.1031 12.8792C12.1027 12.7553 12.0554 12.6362 11.9708 12.5458L10.8812 9.62917C10.8355 9.49018 10.7485 9.36843 10.6318 9.2802C10.5151 9.19197 10.3742 9.14146 10.2281 9.13542C10.0809 9.13535 9.93724 9.17978 9.81585 9.26289C9.69445 9.34599 9.60102 9.46387 9.54785 9.60104L7.8166 13.8458C7.76729 13.9666 7.76795 14.1019 7.81845 14.2222C7.86895 14.3424 7.96514 14.4377 8.08587 14.487C8.2066 14.5363 8.34197 14.5356 8.46221 14.4851C8.58245 14.4346 8.6777 14.3384 8.72702 14.2177L9.07285 13.3708H11.2291L11.5395 14.2042C11.5607 14.2665 11.5942 14.3239 11.6379 14.373C11.6817 14.4221 11.7349 14.4619 11.7943 14.4901C11.8538 14.5183 11.9182 14.5343 11.984 14.5371C12.0497 14.54 12.1153 14.5295 12.177 14.5065C12.2386 14.4835 12.295 14.4484 12.3428 14.4032C12.3906 14.358 12.4289 14.3036 12.4553 14.2434C12.4817 14.1831 12.4958 14.1182 12.4966 14.0524C12.4975 13.9866 12.4852 13.9213 12.4604 13.8604L12.101 12.8958ZM8.63952 9.68958C8.63979 9.62503 8.6273 9.56105 8.60275 9.50135C8.57821 9.44164 8.54209 9.38737 8.49649 9.34168C8.45089 9.29598 8.39671 9.25975 8.33705 9.23508C8.2774 9.21041 8.21345 9.19778 8.14889 9.19792H4.76868C4.63829 9.19792 4.51323 9.24972 4.42102 9.34192C4.32882 9.43413 4.27702 9.55919 4.27702 9.68958C4.27702 9.81998 4.32882 9.94504 4.42102 10.0372C4.51323 10.1294 4.63829 10.1813 4.76868 10.1813H5.97702V14.0729C5.97702 14.2033 6.02882 14.3284 6.12102 14.4206C6.21323 14.5128 6.33829 14.5646 6.46868 14.5646C6.59908 14.5646 6.72414 14.5128 6.81635 14.4206C6.90855 14.3284 6.96035 14.2033 6.96035 14.0729V10.1813H8.14785C8.2125 10.1815 8.27655 10.169 8.33633 10.1444C8.39611 10.1198 8.45042 10.0836 8.49613 10.0379C8.54184 9.99215 8.57804 9.93784 8.60265 9.87806C8.62726 9.81828 8.63979 9.75423 8.63952 9.68958Z" fill="#7A4C47"/>
</g>
</svg>
