<svg width="20" height="20" viewBox="0 0 20 20" fill="none" xmlns="http://www.w3.org/2000/svg">
<path d="M5.83333 17.2174C4.57645 16.4917 3.53088 15.4503 2.80015 14.1963C2.06943 12.9423 1.67887 11.5193 1.66714 10.068C1.65542 8.61665 2.02294 7.18745 2.73332 5.92183C3.4437 4.65621 4.4723 3.59806 5.7173 2.85214C6.9623 2.10622 8.38053 1.69839 9.83159 1.66902C11.2826 1.63965 12.7162 1.98977 13.9904 2.6847C15.2645 3.37964 16.3351 4.3953 17.0961 5.63114C17.8571 6.86698 18.2822 8.28015 18.3292 9.73074L18.3333 10.0007L18.3292 10.2707C18.2825 11.7099 17.8637 13.1124 17.1136 14.3416C16.3636 15.5707 15.3078 16.5845 14.0493 17.2842C12.7907 17.9838 11.3724 18.3454 9.9325 18.3337C8.49261 18.322 7.08033 17.9374 5.83333 17.2174ZM11.2408 12.3841C11.4154 12.488 11.622 12.5246 11.8217 12.4869C12.0213 12.4492 12.2003 12.3399 12.325 12.1794C12.4497 12.019 12.5115 11.8185 12.4988 11.6157C12.486 11.4129 12.3996 11.2218 12.2558 11.0782L11.1792 10.0007L12.2558 8.92324L12.325 8.84491C12.4545 8.67741 12.5154 8.46691 12.4953 8.25614C12.4753 8.04537 12.3757 7.85014 12.2169 7.71011C12.0581 7.57009 11.8519 7.49576 11.6403 7.50222C11.4287 7.50868 11.2275 7.59545 11.0775 7.74491L10 8.82157L8.9225 7.74491L8.84417 7.67574C8.67668 7.54623 8.46617 7.48533 8.2554 7.50541C8.04463 7.52549 7.8494 7.62504 7.70938 7.78384C7.56935 7.94265 7.49502 8.1488 7.50148 8.36042C7.50794 8.57205 7.59471 8.77328 7.74417 8.92324L8.82084 10.0007L7.74417 11.0782L7.675 11.1566C7.54549 11.3241 7.48459 11.5346 7.50467 11.7453C7.52475 11.9561 7.6243 12.1513 7.7831 12.2914C7.94191 12.4314 8.14806 12.5057 8.35968 12.4993C8.57131 12.4928 8.77254 12.406 8.9225 12.2566L10 11.1799L11.0775 12.2566L11.1558 12.3257L11.2408 12.3841Z" fill="black"/>
</svg>
